<svg xmlns="http://www.w3.org/2000/svg" fill="none" viewBox="0 0 24 24" id="Bash-Icon--Streamline-Svg-Logos" height="24" width="24">
  <desc>
    Bash Icon Streamline Icon: https://streamlinehq.com
  </desc>
  <path fill="#ffffff" d="M20.808475 5.0383 13.4063 0.6435325c-0.879775 -0.52471 -1.976425 -0.52471 -2.8562 0L3.14645 5.0383c-0.8905675 0.537225 -1.432775 1.503425 -1.4274175 2.543475v8.788025c-0.004835 1.039525 0.537305 2.005025 1.4274175 2.542l7.40215 4.393275c0.879875 0.524375 1.97635 0.524375 2.856225 0L20.807 18.9118c0.891125 -0.5369 1.433925 -1.503125 1.428875 -2.543475V7.581775c0.005375 -1.04005 -0.53685 -2.00625 -1.4274 -2.543475Z" stroke-width="0.25"></path>
  <path fill="#2f3a3e" d="M20.850525 5.048825 13.43205 0.6444c-0.881725 -0.5258665 -1.9808 -0.5258665 -2.8625 0L3.149575 5.048825c-0.89251 0.53845 -1.4359125 1.50675 -1.4305425 2.5491v8.807375c-0.004845 1.041825 0.53849 2.009425 1.4305425 2.5476l7.418475 4.40295c0.8818 0.525525 1.9807 0.525525 2.862525 0l7.41845 -4.40295c0.8931 -0.538075 1.4371 -1.50645 1.43205 -2.549075V7.597925c0.005375 -1.04235 -0.538025 -2.01065 -1.43055 -2.5491Zm-10.0225 17.856925L3.40955 18.5028c-0.7331 -0.44425 -1.1796275 -1.2403 -1.17652 -2.0975V7.597925c-0.0034025 -0.857275 0.443195 -1.653475 1.17652 -2.0975L10.828025 1.095985c0.722 -0.430735 1.622075 -0.430735 2.344075 0L20.584625 5.500425c0.61105 0.3701 1.0279 0.99075 1.13935 1.6964 -0.246575 -0.524375 -0.800675 -0.66845 -1.44685 -0.297075L13.2642 11.243275c-0.87495 0.509525 -1.51965 1.0844 -1.521125 2.139075v8.64845c0 0.631325 0.254 1.039825 0.646175 1.16015 -0.128425 0.02355 -0.25865 0.035975 -0.3892 0.03715 -0.412525 -0.0003 -0.817375 -0.11165 -1.172025 -0.32235Z" stroke-width="0.25"></path>
  <path fill="#3ab14a" d="m18.88575 17.238 -1.843875 1.10275c-0.049375 0.01985 -0.082475 0.066875 -0.084475 0.120075v0.484675c0 0.0593 0.040025 0.083 0.088925 0.05485l1.87205 -1.13835c0.045825 -0.034375 0.067775 -0.092075 0.0563 -0.148225v-0.425375c-0.001475 -0.05485 -0.04445 -0.078575 -0.088925 -0.0504Z" stroke-width="0.25"></path>
  <path fill="#ffffff" d="M14.9618 13.177825c0.0593 -0.02965 0.1082 0 0.1097 0.084475l0.005925 0.643275c0.221725 -0.100725 0.4691 -0.13075 0.7085 -0.085975 0.04595 0.011875 0.0652 0.074125 0.047425 0.148225l-0.1408 0.564725c-0.010675 0.042625 -0.0327 0.08155 -0.06375 0.11265 -0.0109 0.01075 -0.0234 0.01975 -0.03705 0.026675 -0.01675 0.009075 -0.036075 0.0122 -0.05485 0.0089 -0.233425 -0.0517 -0.477775 -0.012475 -0.6833 0.109675 -0.3005 0.135375 -0.49695 0.4309 -0.505425 0.760375 0 0.29645 0.148225 0.377975 0.6655 0.386875 0.6833 0.01185 0.97975 0.309775 0.987175 0.999 -0.016275 0.719425 -0.348 1.395325 -0.907125 1.848325l0.01185 0.631425c-0.00105 0.078425 -0.041775 0.15095 -0.1082 0.192675l-0.3735 0.214925c-0.0593 0.02965 -0.1082 0 -0.1097 -0.083V19.12c-0.32015 0.1334 -0.64475 0.164525 -0.852275 0.081525 -0.038525 -0.014825 -0.056325 -0.072625 -0.04 -0.139325l0.134875 -0.57065c0.01025 -0.045175 0.033425 -0.086375 0.0667 -0.118575 0.01055 -0.010125 0.022525 -0.0186 0.035575 -0.0252 0.019325 -0.0087 0.04145 -0.0087 0.060775 0 0.264225 0.071625 0.54605 0.035925 0.784075 -0.099325 0.343475 -0.16565 0.5667 -0.5082 0.57955 -0.889325 0 -0.32015 -0.176375 -0.45355 -0.592875 -0.456525 -0.53805 0 -1.03755 -0.10375 -1.047925 -0.889325 0.012375 -0.6863 0.330975 -1.3311 0.868575 -1.7579l-0.0267 -0.646225c-0.000225 -0.079575 0.0407 -0.153575 0.108225 -0.195675l0.36905 -0.23565Z" stroke-width="0.25"></path>
</svg>
