<svg xmlns="http://www.w3.org/2000/svg" viewBox="0 0 128 128"><radialGradient id="linux-original-a" cx="-992.915" cy="-952.952" r="43.267" gradientTransform="matrix(.7 0 0 .35 782.303 444.575)" gradientUnits="userSpaceOnUse"><stop offset="0" stop-opacity=".502"/><stop offset="1" stop-opacity="0"/></radialGradient><path fill="url(#linux-original-a)" d="M117.641 111.137c0 8.362-13.557 15.14-30.28 15.14-16.722 0-30.279-6.778-30.279-15.14s13.556-15.14 30.278-15.14c16.723.001 30.281 6.779 30.281 15.14z"/><radialGradient id="linux-original-b" cx="-770.661" cy="-951.636" r="43.267" gradientTransform="matrix(.719 0 0 .35 595.327 443.952)" gradientUnits="userSpaceOnUse"><stop offset="0" stop-opacity=".502"/><stop offset="1" stop-opacity="0"/></radialGradient><path fill="url(#linux-original-b)" d="M72.546 110.974c0 8.362-13.921 15.14-31.094 15.14s-31.093-6.778-31.093-15.14c0-8.361 13.921-15.14 31.093-15.14 17.173 0 31.094 6.779 31.094 15.14z"/><path d="M108.095 81.343c-1.534 6.324-9.322 19.527-1.534 19.527s7.788-13.203 9.322-19.527c1.534-6.324 1.534-12.648 0-18.972-1.534-6.324-4.602-9.486-7.67-9.486s-6.136 3.162-7.67 9.486c-1.534 6.324-1.534 12.648 0 18.972z" fill="#fcc624"/><path d="M19.905 81.343c1.534 6.324 9.322 19.527 1.534 19.527s-7.788-13.203-9.322-19.527c-1.534-6.324-1.534-12.648 0-18.972 1.534-6.324 4.602-9.486 7.67-9.486s6.136 3.162 7.67 9.486c1.534 6.324 1.534 12.648 0 18.972z" fill="#fcc624"/><path d="M64 8.5c-30.376 0-55 24.624-55 55s24.624 55 55 55 55-24.624 55-55-24.624-55-55-55zm0 8c25.957 0 47 21.043 47 47s-21.043 47-47 47-47-21.043-47-47 21.043-47 47-47z" fill="#fcc624"/><path d="M64 24.5c-21.505 0-39 17.495-39 39s17.495 39 39 39 39-17.495 39-39-17.495-39-39-39zm0 8c17.121 0 31 13.879 31 31s-13.879 31-31 31-31-13.879-31-31 13.879-31 31-31z" fill="#fcc624"/><path d="M64 40.5c-12.703 0-23 10.297-23 23s10.297 23 23 23 23-10.297 23-23-10.297-23-23-23zm0 8c8.284 0 15 6.716 15 15s-6.716 15-15 15-15-6.716-15-15 6.716-15 15-15z" fill="#fcc624"/><path d="M64 56.5c-3.866 0-7 3.134-7 7s3.134 7 7 7 7-3.134 7-7-3.134-7-7-7zm0 4c1.657 0 3 1.343 3 3s-1.343 3-3 3-3-1.343-3-3 1.343-3 3-3z" fill="#fcc624"/></svg>
